<mxfile host="app.diagrams.net" agent="Mozilla/5.0 (X11; Linux x86_64; rv:140.0) Gecko/20100101 Firefox/140.0" version="27.1.1">
  <diagram name="Page-1" id="bQDI14vMw8PZ6naLLSDK">
    <mxGraphModel dx="988" dy="667" grid="1" gridSize="10" guides="1" tooltips="1" connect="1" arrows="1" fold="1" page="1" pageScale="1" pageWidth="850" pageHeight="1100" math="0" shadow="0">
      <root>
        <mxCell id="0" />
        <mxCell id="1" parent="0" />
        <mxCell id="U2eWrKddskr88P-q4Avn-1" value="" style="shape=table;startSize=0;container=1;collapsible=0;childLayout=tableLayout;fontStyle=0" vertex="1" parent="1">
          <mxGeometry x="75" y="250" width="700" height="590" as="geometry" />
        </mxCell>
        <mxCell id="U2eWrKddskr88P-q4Avn-2" value="" style="shape=tableRow;horizontal=0;startSize=0;swimlaneHead=0;swimlaneBody=0;strokeColor=inherit;top=0;left=0;bottom=0;right=0;collapsible=0;dropTarget=0;fillColor=none;points=[[0,0.5],[1,0.5]];portConstraint=eastwest;" vertex="1" parent="U2eWrKddskr88P-q4Avn-1">
          <mxGeometry width="700" height="40" as="geometry" />
        </mxCell>
        <mxCell id="U2eWrKddskr88P-q4Avn-3" value="Use Case ID" style="shape=partialRectangle;html=1;whiteSpace=wrap;connectable=0;strokeColor=inherit;overflow=hidden;fillColor=none;top=0;left=0;bottom=0;right=0;pointerEvents=1;fontStyle=1" vertex="1" parent="U2eWrKddskr88P-q4Avn-2">
          <mxGeometry width="120" height="40" as="geometry">
            <mxRectangle width="120" height="40" as="alternateBounds" />
          </mxGeometry>
        </mxCell>
        <mxCell id="U2eWrKddskr88P-q4Avn-4" value="12" style="shape=partialRectangle;html=1;whiteSpace=wrap;connectable=0;strokeColor=inherit;overflow=hidden;fillColor=none;top=0;left=0;bottom=0;right=0;pointerEvents=1;" vertex="1" parent="U2eWrKddskr88P-q4Avn-2">
          <mxGeometry x="120" width="54" height="40" as="geometry">
            <mxRectangle width="54" height="40" as="alternateBounds" />
          </mxGeometry>
        </mxCell>
        <mxCell id="U2eWrKddskr88P-q4Avn-5" value="Use Case name" style="shape=partialRectangle;html=1;whiteSpace=wrap;connectable=0;strokeColor=inherit;overflow=hidden;fillColor=none;top=0;left=0;bottom=0;right=0;pointerEvents=1;fontStyle=1" vertex="1" parent="U2eWrKddskr88P-q4Avn-2">
          <mxGeometry x="174" width="110" height="40" as="geometry">
            <mxRectangle width="110" height="40" as="alternateBounds" />
          </mxGeometry>
        </mxCell>
        <mxCell id="U2eWrKddskr88P-q4Avn-6" value="Pay via E-banking" style="shape=partialRectangle;html=1;whiteSpace=wrap;connectable=0;strokeColor=inherit;overflow=hidden;fillColor=none;top=0;left=0;bottom=0;right=0;pointerEvents=1;" vertex="1" parent="U2eWrKddskr88P-q4Avn-2">
          <mxGeometry x="284" width="416" height="40" as="geometry">
            <mxRectangle width="416" height="40" as="alternateBounds" />
          </mxGeometry>
        </mxCell>
        <mxCell id="U2eWrKddskr88P-q4Avn-7" style="shape=tableRow;horizontal=0;startSize=0;swimlaneHead=0;swimlaneBody=0;strokeColor=inherit;top=0;left=0;bottom=0;right=0;collapsible=0;dropTarget=0;fillColor=none;points=[[0,0.5],[1,0.5]];portConstraint=eastwest;" vertex="1" parent="U2eWrKddskr88P-q4Avn-1">
          <mxGeometry y="40" width="700" height="50" as="geometry" />
        </mxCell>
        <mxCell id="U2eWrKddskr88P-q4Avn-8" value="Description" style="shape=partialRectangle;html=1;whiteSpace=wrap;connectable=0;strokeColor=inherit;overflow=hidden;fillColor=none;top=0;left=0;bottom=0;right=0;pointerEvents=1;fontStyle=1" vertex="1" parent="U2eWrKddskr88P-q4Avn-7">
          <mxGeometry width="120" height="50" as="geometry">
            <mxRectangle width="120" height="50" as="alternateBounds" />
          </mxGeometry>
        </mxCell>
        <mxCell id="U2eWrKddskr88P-q4Avn-9" value="Execute an online payment through the integrated e-banking gateway through QR code." style="shape=partialRectangle;html=1;whiteSpace=wrap;connectable=0;strokeColor=inherit;overflow=hidden;fillColor=none;top=0;left=0;bottom=0;right=0;pointerEvents=1;rowspan=1;colspan=3;" vertex="1" parent="U2eWrKddskr88P-q4Avn-7">
          <mxGeometry x="120" width="580" height="50" as="geometry">
            <mxRectangle width="54" height="50" as="alternateBounds" />
          </mxGeometry>
        </mxCell>
        <mxCell id="U2eWrKddskr88P-q4Avn-10" style="shape=partialRectangle;html=1;whiteSpace=wrap;connectable=0;strokeColor=inherit;overflow=hidden;fillColor=none;top=0;left=0;bottom=0;right=0;pointerEvents=1;fontStyle=1" vertex="1" visible="0" parent="U2eWrKddskr88P-q4Avn-7">
          <mxGeometry x="174" width="110" height="50" as="geometry">
            <mxRectangle width="110" height="50" as="alternateBounds" />
          </mxGeometry>
        </mxCell>
        <mxCell id="U2eWrKddskr88P-q4Avn-11" style="shape=partialRectangle;html=1;whiteSpace=wrap;connectable=0;strokeColor=inherit;overflow=hidden;fillColor=none;top=0;left=0;bottom=0;right=0;pointerEvents=1;" vertex="1" visible="0" parent="U2eWrKddskr88P-q4Avn-7">
          <mxGeometry x="284" width="416" height="50" as="geometry">
            <mxRectangle width="416" height="50" as="alternateBounds" />
          </mxGeometry>
        </mxCell>
        <mxCell id="U2eWrKddskr88P-q4Avn-12" value="" style="shape=tableRow;horizontal=0;startSize=0;swimlaneHead=0;swimlaneBody=0;strokeColor=inherit;top=0;left=0;bottom=0;right=0;collapsible=0;dropTarget=0;fillColor=none;points=[[0,0.5],[1,0.5]];portConstraint=eastwest;" vertex="1" parent="U2eWrKddskr88P-q4Avn-1">
          <mxGeometry y="90" width="700" height="40" as="geometry" />
        </mxCell>
        <mxCell id="U2eWrKddskr88P-q4Avn-13" value="Actor" style="shape=partialRectangle;html=1;whiteSpace=wrap;connectable=0;strokeColor=inherit;overflow=hidden;fillColor=none;top=0;left=0;bottom=0;right=0;pointerEvents=1;fontStyle=1" vertex="1" parent="U2eWrKddskr88P-q4Avn-12">
          <mxGeometry width="120" height="40" as="geometry">
            <mxRectangle width="120" height="40" as="alternateBounds" />
          </mxGeometry>
        </mxCell>
        <mxCell id="U2eWrKddskr88P-q4Avn-14" value="Customer, Payment Gateway" style="shape=partialRectangle;html=1;whiteSpace=wrap;connectable=0;strokeColor=inherit;overflow=hidden;fillColor=none;top=0;left=0;bottom=0;right=0;pointerEvents=1;rowspan=1;colspan=3;" vertex="1" parent="U2eWrKddskr88P-q4Avn-12">
          <mxGeometry x="120" width="580" height="40" as="geometry">
            <mxRectangle width="54" height="40" as="alternateBounds" />
          </mxGeometry>
        </mxCell>
        <mxCell id="U2eWrKddskr88P-q4Avn-15" value="" style="shape=partialRectangle;html=1;whiteSpace=wrap;connectable=0;strokeColor=inherit;overflow=hidden;fillColor=none;top=0;left=0;bottom=0;right=0;pointerEvents=1;" vertex="1" visible="0" parent="U2eWrKddskr88P-q4Avn-12">
          <mxGeometry x="174" width="110" height="40" as="geometry">
            <mxRectangle width="110" height="40" as="alternateBounds" />
          </mxGeometry>
        </mxCell>
        <mxCell id="U2eWrKddskr88P-q4Avn-16" value="" style="shape=partialRectangle;html=1;whiteSpace=wrap;connectable=0;strokeColor=inherit;overflow=hidden;fillColor=none;top=0;left=0;bottom=0;right=0;pointerEvents=1;" vertex="1" visible="0" parent="U2eWrKddskr88P-q4Avn-12">
          <mxGeometry x="284" width="416" height="40" as="geometry">
            <mxRectangle width="416" height="40" as="alternateBounds" />
          </mxGeometry>
        </mxCell>
        <mxCell id="U2eWrKddskr88P-q4Avn-17" style="shape=tableRow;horizontal=0;startSize=0;swimlaneHead=0;swimlaneBody=0;strokeColor=inherit;top=0;left=0;bottom=0;right=0;collapsible=0;dropTarget=0;fillColor=none;points=[[0,0.5],[1,0.5]];portConstraint=eastwest;" vertex="1" parent="U2eWrKddskr88P-q4Avn-1">
          <mxGeometry y="130" width="700" height="40" as="geometry" />
        </mxCell>
        <mxCell id="U2eWrKddskr88P-q4Avn-18" value="Trigger" style="shape=partialRectangle;html=1;whiteSpace=wrap;connectable=0;strokeColor=inherit;overflow=hidden;fillColor=none;top=0;left=0;bottom=0;right=0;pointerEvents=1;fontStyle=1" vertex="1" parent="U2eWrKddskr88P-q4Avn-17">
          <mxGeometry width="120" height="40" as="geometry">
            <mxRectangle width="120" height="40" as="alternateBounds" />
          </mxGeometry>
        </mxCell>
        <mxCell id="U2eWrKddskr88P-q4Avn-19" value="Customer selects &lt;strong data-end=&quot;1981&quot; data-start=&quot;1955&quot;&gt;Cash on Delivery (COD)&lt;/strong&gt; and confirms." style="shape=partialRectangle;html=1;whiteSpace=wrap;connectable=0;strokeColor=inherit;overflow=hidden;fillColor=none;top=0;left=0;bottom=0;right=0;pointerEvents=1;rowspan=1;colspan=3;" vertex="1" parent="U2eWrKddskr88P-q4Avn-17">
          <mxGeometry x="120" width="580" height="40" as="geometry">
            <mxRectangle width="54" height="40" as="alternateBounds" />
          </mxGeometry>
        </mxCell>
        <mxCell id="U2eWrKddskr88P-q4Avn-20" style="shape=partialRectangle;html=1;whiteSpace=wrap;connectable=0;strokeColor=inherit;overflow=hidden;fillColor=none;top=0;left=0;bottom=0;right=0;pointerEvents=1;" vertex="1" visible="0" parent="U2eWrKddskr88P-q4Avn-17">
          <mxGeometry x="174" width="110" height="40" as="geometry">
            <mxRectangle width="110" height="40" as="alternateBounds" />
          </mxGeometry>
        </mxCell>
        <mxCell id="U2eWrKddskr88P-q4Avn-21" style="shape=partialRectangle;html=1;whiteSpace=wrap;connectable=0;strokeColor=inherit;overflow=hidden;fillColor=none;top=0;left=0;bottom=0;right=0;pointerEvents=1;" vertex="1" visible="0" parent="U2eWrKddskr88P-q4Avn-17">
          <mxGeometry x="284" width="416" height="40" as="geometry">
            <mxRectangle width="416" height="40" as="alternateBounds" />
          </mxGeometry>
        </mxCell>
        <mxCell id="U2eWrKddskr88P-q4Avn-22" value="" style="shape=tableRow;horizontal=0;startSize=0;swimlaneHead=0;swimlaneBody=0;strokeColor=inherit;top=0;left=0;bottom=0;right=0;collapsible=0;dropTarget=0;fillColor=none;points=[[0,0.5],[1,0.5]];portConstraint=eastwest;" vertex="1" parent="U2eWrKddskr88P-q4Avn-1">
          <mxGeometry y="170" width="700" height="40" as="geometry" />
        </mxCell>
        <mxCell id="U2eWrKddskr88P-q4Avn-23" value="&lt;b&gt;Pre-Condition&lt;/b&gt;" style="shape=partialRectangle;html=1;whiteSpace=wrap;connectable=0;strokeColor=inherit;overflow=hidden;fillColor=none;top=0;left=0;bottom=0;right=0;pointerEvents=1;" vertex="1" parent="U2eWrKddskr88P-q4Avn-22">
          <mxGeometry width="120" height="40" as="geometry">
            <mxRectangle width="120" height="40" as="alternateBounds" />
          </mxGeometry>
        </mxCell>
        <mxCell id="U2eWrKddskr88P-q4Avn-24" value="&lt;div align=&quot;left&quot;&gt;&lt;ul&gt;&lt;li&gt;Customer checked the order&#39;s information&lt;/li&gt;&lt;/ul&gt;&lt;/div&gt;" style="shape=partialRectangle;html=1;whiteSpace=wrap;connectable=0;strokeColor=inherit;overflow=hidden;fillColor=none;top=0;left=0;bottom=0;right=0;pointerEvents=1;rowspan=1;colspan=3;align=left;" vertex="1" parent="U2eWrKddskr88P-q4Avn-22">
          <mxGeometry x="120" width="580" height="40" as="geometry">
            <mxRectangle width="54" height="40" as="alternateBounds" />
          </mxGeometry>
        </mxCell>
        <mxCell id="U2eWrKddskr88P-q4Avn-25" value="" style="shape=partialRectangle;html=1;whiteSpace=wrap;connectable=0;strokeColor=inherit;overflow=hidden;fillColor=none;top=0;left=0;bottom=0;right=0;pointerEvents=1;" vertex="1" visible="0" parent="U2eWrKddskr88P-q4Avn-22">
          <mxGeometry x="174" width="110" height="40" as="geometry">
            <mxRectangle width="110" height="40" as="alternateBounds" />
          </mxGeometry>
        </mxCell>
        <mxCell id="U2eWrKddskr88P-q4Avn-26" value="" style="shape=partialRectangle;html=1;whiteSpace=wrap;connectable=0;strokeColor=inherit;overflow=hidden;fillColor=none;top=0;left=0;bottom=0;right=0;pointerEvents=1;" vertex="1" visible="0" parent="U2eWrKddskr88P-q4Avn-22">
          <mxGeometry x="284" width="416" height="40" as="geometry">
            <mxRectangle width="416" height="40" as="alternateBounds" />
          </mxGeometry>
        </mxCell>
        <mxCell id="U2eWrKddskr88P-q4Avn-27" style="shape=tableRow;horizontal=0;startSize=0;swimlaneHead=0;swimlaneBody=0;strokeColor=inherit;top=0;left=0;bottom=0;right=0;collapsible=0;dropTarget=0;fillColor=none;points=[[0,0.5],[1,0.5]];portConstraint=eastwest;" vertex="1" parent="U2eWrKddskr88P-q4Avn-1">
          <mxGeometry y="210" width="700" height="40" as="geometry" />
        </mxCell>
        <mxCell id="U2eWrKddskr88P-q4Avn-28" value="&lt;b&gt;Post-Condition&lt;/b&gt;" style="shape=partialRectangle;html=1;whiteSpace=wrap;connectable=0;strokeColor=inherit;overflow=hidden;fillColor=none;top=0;left=0;bottom=0;right=0;pointerEvents=1;" vertex="1" parent="U2eWrKddskr88P-q4Avn-27">
          <mxGeometry width="120" height="40" as="geometry">
            <mxRectangle width="120" height="40" as="alternateBounds" />
          </mxGeometry>
        </mxCell>
        <mxCell id="U2eWrKddskr88P-q4Avn-29" value="&lt;div align=&quot;left&quot;&gt;&lt;ul&gt;&lt;li&gt;Payment is confirmed and completed&lt;/li&gt;&lt;/ul&gt;&lt;/div&gt;" style="shape=partialRectangle;html=1;whiteSpace=wrap;connectable=0;strokeColor=inherit;overflow=hidden;fillColor=none;top=0;left=0;bottom=0;right=0;pointerEvents=1;rowspan=1;colspan=3;align=left;" vertex="1" parent="U2eWrKddskr88P-q4Avn-27">
          <mxGeometry x="120" width="580" height="40" as="geometry">
            <mxRectangle width="54" height="40" as="alternateBounds" />
          </mxGeometry>
        </mxCell>
        <mxCell id="U2eWrKddskr88P-q4Avn-30" style="shape=partialRectangle;html=1;whiteSpace=wrap;connectable=0;strokeColor=inherit;overflow=hidden;fillColor=none;top=0;left=0;bottom=0;right=0;pointerEvents=1;" vertex="1" visible="0" parent="U2eWrKddskr88P-q4Avn-27">
          <mxGeometry x="174" width="110" height="40" as="geometry">
            <mxRectangle width="110" height="40" as="alternateBounds" />
          </mxGeometry>
        </mxCell>
        <mxCell id="U2eWrKddskr88P-q4Avn-31" style="shape=partialRectangle;html=1;whiteSpace=wrap;connectable=0;strokeColor=inherit;overflow=hidden;fillColor=none;top=0;left=0;bottom=0;right=0;pointerEvents=1;" vertex="1" visible="0" parent="U2eWrKddskr88P-q4Avn-27">
          <mxGeometry x="284" width="416" height="40" as="geometry">
            <mxRectangle width="416" height="40" as="alternateBounds" />
          </mxGeometry>
        </mxCell>
        <mxCell id="U2eWrKddskr88P-q4Avn-32" value="" style="shape=tableRow;horizontal=0;startSize=0;swimlaneHead=0;swimlaneBody=0;strokeColor=inherit;top=0;left=0;bottom=0;right=0;collapsible=0;dropTarget=0;fillColor=none;points=[[0,0.5],[1,0.5]];portConstraint=eastwest;" vertex="1" parent="U2eWrKddskr88P-q4Avn-1">
          <mxGeometry y="250" width="700" height="40" as="geometry" />
        </mxCell>
        <mxCell id="U2eWrKddskr88P-q4Avn-33" value="&lt;b&gt;Basic Flow&lt;/b&gt;" style="shape=partialRectangle;html=1;whiteSpace=wrap;connectable=0;strokeColor=inherit;overflow=hidden;fillColor=none;top=0;left=0;bottom=0;right=0;pointerEvents=1;rowspan=6;colspan=1;" vertex="1" parent="U2eWrKddskr88P-q4Avn-32">
          <mxGeometry width="120" height="240" as="geometry">
            <mxRectangle width="120" height="40" as="alternateBounds" />
          </mxGeometry>
        </mxCell>
        <mxCell id="U2eWrKddskr88P-q4Avn-34" value="Step" style="shape=partialRectangle;html=1;whiteSpace=wrap;connectable=0;strokeColor=inherit;overflow=hidden;fillColor=none;top=0;left=0;bottom=0;right=0;pointerEvents=1;" vertex="1" parent="U2eWrKddskr88P-q4Avn-32">
          <mxGeometry x="120" width="54" height="40" as="geometry">
            <mxRectangle width="54" height="40" as="alternateBounds" />
          </mxGeometry>
        </mxCell>
        <mxCell id="U2eWrKddskr88P-q4Avn-35" value="Performed by" style="shape=partialRectangle;html=1;whiteSpace=wrap;connectable=0;strokeColor=inherit;overflow=hidden;fillColor=none;top=0;left=0;bottom=0;right=0;pointerEvents=1;" vertex="1" parent="U2eWrKddskr88P-q4Avn-32">
          <mxGeometry x="174" width="110" height="40" as="geometry">
            <mxRectangle width="110" height="40" as="alternateBounds" />
          </mxGeometry>
        </mxCell>
        <mxCell id="U2eWrKddskr88P-q4Avn-36" value="Action" style="shape=partialRectangle;html=1;whiteSpace=wrap;connectable=0;strokeColor=inherit;overflow=hidden;fillColor=none;top=0;left=0;bottom=0;right=0;pointerEvents=1;" vertex="1" parent="U2eWrKddskr88P-q4Avn-32">
          <mxGeometry x="284" width="416" height="40" as="geometry">
            <mxRectangle width="416" height="40" as="alternateBounds" />
          </mxGeometry>
        </mxCell>
        <mxCell id="U2eWrKddskr88P-q4Avn-37" value="" style="shape=tableRow;horizontal=0;startSize=0;swimlaneHead=0;swimlaneBody=0;strokeColor=inherit;top=0;left=0;bottom=0;right=0;collapsible=0;dropTarget=0;fillColor=none;points=[[0,0.5],[1,0.5]];portConstraint=eastwest;" vertex="1" parent="U2eWrKddskr88P-q4Avn-1">
          <mxGeometry y="290" width="700" height="40" as="geometry" />
        </mxCell>
        <mxCell id="U2eWrKddskr88P-q4Avn-38" value="" style="shape=partialRectangle;html=1;whiteSpace=wrap;connectable=0;strokeColor=inherit;overflow=hidden;fillColor=none;top=0;left=0;bottom=0;right=0;pointerEvents=1;" vertex="1" visible="0" parent="U2eWrKddskr88P-q4Avn-37">
          <mxGeometry width="120" height="40" as="geometry">
            <mxRectangle width="120" height="40" as="alternateBounds" />
          </mxGeometry>
        </mxCell>
        <mxCell id="U2eWrKddskr88P-q4Avn-39" value="1" style="shape=partialRectangle;html=1;whiteSpace=wrap;connectable=0;strokeColor=inherit;overflow=hidden;fillColor=none;top=0;left=0;bottom=0;right=0;pointerEvents=1;" vertex="1" parent="U2eWrKddskr88P-q4Avn-37">
          <mxGeometry x="120" width="54" height="40" as="geometry">
            <mxRectangle width="54" height="40" as="alternateBounds" />
          </mxGeometry>
        </mxCell>
        <mxCell id="U2eWrKddskr88P-q4Avn-40" value="System" style="shape=partialRectangle;html=1;whiteSpace=wrap;connectable=0;strokeColor=inherit;overflow=hidden;fillColor=none;top=0;left=0;bottom=0;right=0;pointerEvents=1;" vertex="1" parent="U2eWrKddskr88P-q4Avn-37">
          <mxGeometry x="174" width="110" height="40" as="geometry">
            <mxRectangle width="110" height="40" as="alternateBounds" />
          </mxGeometry>
        </mxCell>
        <mxCell id="U2eWrKddskr88P-q4Avn-41" value="Shows payment options" style="shape=partialRectangle;html=1;whiteSpace=wrap;connectable=0;strokeColor=inherit;overflow=hidden;fillColor=none;top=0;left=0;bottom=0;right=0;pointerEvents=1;fontStyle=0" vertex="1" parent="U2eWrKddskr88P-q4Avn-37">
          <mxGeometry x="284" width="416" height="40" as="geometry">
            <mxRectangle width="416" height="40" as="alternateBounds" />
          </mxGeometry>
        </mxCell>
        <mxCell id="U2eWrKddskr88P-q4Avn-42" value="" style="shape=tableRow;horizontal=0;startSize=0;swimlaneHead=0;swimlaneBody=0;strokeColor=inherit;top=0;left=0;bottom=0;right=0;collapsible=0;dropTarget=0;fillColor=none;points=[[0,0.5],[1,0.5]];portConstraint=eastwest;" vertex="1" parent="U2eWrKddskr88P-q4Avn-1">
          <mxGeometry y="330" width="700" height="40" as="geometry" />
        </mxCell>
        <mxCell id="U2eWrKddskr88P-q4Avn-43" value="" style="shape=partialRectangle;html=1;whiteSpace=wrap;connectable=0;strokeColor=inherit;overflow=hidden;fillColor=none;top=0;left=0;bottom=0;right=0;pointerEvents=1;" vertex="1" visible="0" parent="U2eWrKddskr88P-q4Avn-42">
          <mxGeometry width="120" height="40" as="geometry">
            <mxRectangle width="120" height="40" as="alternateBounds" />
          </mxGeometry>
        </mxCell>
        <mxCell id="U2eWrKddskr88P-q4Avn-44" value="2" style="shape=partialRectangle;html=1;whiteSpace=wrap;connectable=0;strokeColor=inherit;overflow=hidden;fillColor=none;top=0;left=0;bottom=0;right=0;pointerEvents=1;" vertex="1" parent="U2eWrKddskr88P-q4Avn-42">
          <mxGeometry x="120" width="54" height="40" as="geometry">
            <mxRectangle width="54" height="40" as="alternateBounds" />
          </mxGeometry>
        </mxCell>
        <mxCell id="U2eWrKddskr88P-q4Avn-45" value="Customer" style="shape=partialRectangle;html=1;whiteSpace=wrap;connectable=0;strokeColor=inherit;overflow=hidden;fillColor=none;top=0;left=0;bottom=0;right=0;pointerEvents=1;" vertex="1" parent="U2eWrKddskr88P-q4Avn-42">
          <mxGeometry x="174" width="110" height="40" as="geometry">
            <mxRectangle width="110" height="40" as="alternateBounds" />
          </mxGeometry>
        </mxCell>
        <mxCell id="U2eWrKddskr88P-q4Avn-46" value="Chooses Pay via E-banking" style="shape=partialRectangle;html=1;whiteSpace=wrap;connectable=0;strokeColor=inherit;overflow=hidden;fillColor=none;top=0;left=0;bottom=0;right=0;pointerEvents=1;fontStyle=0" vertex="1" parent="U2eWrKddskr88P-q4Avn-42">
          <mxGeometry x="284" width="416" height="40" as="geometry">
            <mxRectangle width="416" height="40" as="alternateBounds" />
          </mxGeometry>
        </mxCell>
        <mxCell id="U2eWrKddskr88P-q4Avn-47" value="" style="shape=tableRow;horizontal=0;startSize=0;swimlaneHead=0;swimlaneBody=0;strokeColor=inherit;top=0;left=0;bottom=0;right=0;collapsible=0;dropTarget=0;fillColor=none;points=[[0,0.5],[1,0.5]];portConstraint=eastwest;" vertex="1" parent="U2eWrKddskr88P-q4Avn-1">
          <mxGeometry y="370" width="700" height="40" as="geometry" />
        </mxCell>
        <mxCell id="U2eWrKddskr88P-q4Avn-48" value="" style="shape=partialRectangle;html=1;whiteSpace=wrap;connectable=0;strokeColor=inherit;overflow=hidden;fillColor=none;top=0;left=0;bottom=0;right=0;pointerEvents=1;" vertex="1" visible="0" parent="U2eWrKddskr88P-q4Avn-47">
          <mxGeometry width="120" height="40" as="geometry">
            <mxRectangle width="120" height="40" as="alternateBounds" />
          </mxGeometry>
        </mxCell>
        <mxCell id="U2eWrKddskr88P-q4Avn-49" value="3" style="shape=partialRectangle;html=1;whiteSpace=wrap;connectable=0;strokeColor=inherit;overflow=hidden;fillColor=none;top=0;left=0;bottom=0;right=0;pointerEvents=1;" vertex="1" parent="U2eWrKddskr88P-q4Avn-47">
          <mxGeometry x="120" width="54" height="40" as="geometry">
            <mxRectangle width="54" height="40" as="alternateBounds" />
          </mxGeometry>
        </mxCell>
        <mxCell id="U2eWrKddskr88P-q4Avn-50" value="System" style="shape=partialRectangle;html=1;whiteSpace=wrap;connectable=0;strokeColor=inherit;overflow=hidden;fillColor=none;top=0;left=0;bottom=0;right=0;pointerEvents=1;" vertex="1" parent="U2eWrKddskr88P-q4Avn-47">
          <mxGeometry x="174" width="110" height="40" as="geometry">
            <mxRectangle width="110" height="40" as="alternateBounds" />
          </mxGeometry>
        </mxCell>
        <mxCell id="U2eWrKddskr88P-q4Avn-51" value="Show QR code for the order" style="shape=partialRectangle;html=1;whiteSpace=wrap;connectable=0;strokeColor=inherit;overflow=hidden;fillColor=none;top=0;left=0;bottom=0;right=0;pointerEvents=1;" vertex="1" parent="U2eWrKddskr88P-q4Avn-47">
          <mxGeometry x="284" width="416" height="40" as="geometry">
            <mxRectangle width="416" height="40" as="alternateBounds" />
          </mxGeometry>
        </mxCell>
        <mxCell id="U2eWrKddskr88P-q4Avn-52" style="shape=tableRow;horizontal=0;startSize=0;swimlaneHead=0;swimlaneBody=0;strokeColor=inherit;top=0;left=0;bottom=0;right=0;collapsible=0;dropTarget=0;fillColor=none;points=[[0,0.5],[1,0.5]];portConstraint=eastwest;" vertex="1" parent="U2eWrKddskr88P-q4Avn-1">
          <mxGeometry y="410" width="700" height="40" as="geometry" />
        </mxCell>
        <mxCell id="U2eWrKddskr88P-q4Avn-53" style="shape=partialRectangle;html=1;whiteSpace=wrap;connectable=0;strokeColor=inherit;overflow=hidden;fillColor=none;top=0;left=0;bottom=0;right=0;pointerEvents=1;" visible="0" vertex="1" parent="U2eWrKddskr88P-q4Avn-52">
          <mxGeometry width="120" height="40" as="geometry">
            <mxRectangle width="120" height="40" as="alternateBounds" />
          </mxGeometry>
        </mxCell>
        <mxCell id="U2eWrKddskr88P-q4Avn-54" value="4" style="shape=partialRectangle;html=1;whiteSpace=wrap;connectable=0;strokeColor=inherit;overflow=hidden;fillColor=none;top=0;left=0;bottom=0;right=0;pointerEvents=1;" vertex="1" parent="U2eWrKddskr88P-q4Avn-52">
          <mxGeometry x="120" width="54" height="40" as="geometry">
            <mxRectangle width="54" height="40" as="alternateBounds" />
          </mxGeometry>
        </mxCell>
        <mxCell id="U2eWrKddskr88P-q4Avn-55" value="Customer" style="shape=partialRectangle;html=1;whiteSpace=wrap;connectable=0;strokeColor=inherit;overflow=hidden;fillColor=none;top=0;left=0;bottom=0;right=0;pointerEvents=1;" vertex="1" parent="U2eWrKddskr88P-q4Avn-52">
          <mxGeometry x="174" width="110" height="40" as="geometry">
            <mxRectangle width="110" height="40" as="alternateBounds" />
          </mxGeometry>
        </mxCell>
        <mxCell id="U2eWrKddskr88P-q4Avn-56" value="Scan the QR for transaction" style="shape=partialRectangle;html=1;whiteSpace=wrap;connectable=0;strokeColor=inherit;overflow=hidden;fillColor=none;top=0;left=0;bottom=0;right=0;pointerEvents=1;" vertex="1" parent="U2eWrKddskr88P-q4Avn-52">
          <mxGeometry x="284" width="416" height="40" as="geometry">
            <mxRectangle width="416" height="40" as="alternateBounds" />
          </mxGeometry>
        </mxCell>
        <mxCell id="U2eWrKddskr88P-q4Avn-62" style="shape=tableRow;horizontal=0;startSize=0;swimlaneHead=0;swimlaneBody=0;strokeColor=inherit;top=0;left=0;bottom=0;right=0;collapsible=0;dropTarget=0;fillColor=none;points=[[0,0.5],[1,0.5]];portConstraint=eastwest;" vertex="1" parent="U2eWrKddskr88P-q4Avn-1">
          <mxGeometry y="450" width="700" height="40" as="geometry" />
        </mxCell>
        <mxCell id="U2eWrKddskr88P-q4Avn-63" style="shape=partialRectangle;html=1;whiteSpace=wrap;connectable=0;strokeColor=inherit;overflow=hidden;fillColor=none;top=0;left=0;bottom=0;right=0;pointerEvents=1;" visible="0" vertex="1" parent="U2eWrKddskr88P-q4Avn-62">
          <mxGeometry width="120" height="40" as="geometry">
            <mxRectangle width="120" height="40" as="alternateBounds" />
          </mxGeometry>
        </mxCell>
        <mxCell id="U2eWrKddskr88P-q4Avn-64" value="5" style="shape=partialRectangle;html=1;whiteSpace=wrap;connectable=0;strokeColor=inherit;overflow=hidden;fillColor=none;top=0;left=0;bottom=0;right=0;pointerEvents=1;" vertex="1" parent="U2eWrKddskr88P-q4Avn-62">
          <mxGeometry x="120" width="54" height="40" as="geometry">
            <mxRectangle width="54" height="40" as="alternateBounds" />
          </mxGeometry>
        </mxCell>
        <mxCell id="U2eWrKddskr88P-q4Avn-65" value="System" style="shape=partialRectangle;html=1;whiteSpace=wrap;connectable=0;strokeColor=inherit;overflow=hidden;fillColor=none;top=0;left=0;bottom=0;right=0;pointerEvents=1;" vertex="1" parent="U2eWrKddskr88P-q4Avn-62">
          <mxGeometry x="174" width="110" height="40" as="geometry">
            <mxRectangle width="110" height="40" as="alternateBounds" />
          </mxGeometry>
        </mxCell>
        <mxCell id="U2eWrKddskr88P-q4Avn-66" value="Show confirmation" style="shape=partialRectangle;html=1;whiteSpace=wrap;connectable=0;strokeColor=inherit;overflow=hidden;fillColor=none;top=0;left=0;bottom=0;right=0;pointerEvents=1;" vertex="1" parent="U2eWrKddskr88P-q4Avn-62">
          <mxGeometry x="284" width="416" height="40" as="geometry">
            <mxRectangle width="416" height="40" as="alternateBounds" />
          </mxGeometry>
        </mxCell>
        <mxCell id="U2eWrKddskr88P-q4Avn-57" style="shape=tableRow;horizontal=0;startSize=0;swimlaneHead=0;swimlaneBody=0;strokeColor=inherit;top=0;left=0;bottom=0;right=0;collapsible=0;dropTarget=0;fillColor=none;points=[[0,0.5],[1,0.5]];portConstraint=eastwest;" vertex="1" parent="U2eWrKddskr88P-q4Avn-1">
          <mxGeometry y="490" width="700" height="40" as="geometry" />
        </mxCell>
        <mxCell id="U2eWrKddskr88P-q4Avn-58" value="&lt;b&gt;Exception Flow&lt;/b&gt;" style="shape=partialRectangle;html=1;whiteSpace=wrap;connectable=0;strokeColor=inherit;overflow=hidden;fillColor=none;top=0;left=0;bottom=0;right=0;pointerEvents=1;rowspan=2;colspan=1;" vertex="1" parent="U2eWrKddskr88P-q4Avn-57">
          <mxGeometry width="120" height="100" as="geometry">
            <mxRectangle width="120" height="40" as="alternateBounds" />
          </mxGeometry>
        </mxCell>
        <mxCell id="U2eWrKddskr88P-q4Avn-59" value="4a" style="shape=partialRectangle;html=1;whiteSpace=wrap;connectable=0;strokeColor=inherit;overflow=hidden;fillColor=none;top=0;left=0;bottom=0;right=0;pointerEvents=1;" vertex="1" parent="U2eWrKddskr88P-q4Avn-57">
          <mxGeometry x="120" width="54" height="40" as="geometry">
            <mxRectangle width="54" height="40" as="alternateBounds" />
          </mxGeometry>
        </mxCell>
        <mxCell id="U2eWrKddskr88P-q4Avn-60" value="Customer" style="shape=partialRectangle;html=1;whiteSpace=wrap;connectable=0;strokeColor=inherit;overflow=hidden;fillColor=none;top=0;left=0;bottom=0;right=0;pointerEvents=1;" vertex="1" parent="U2eWrKddskr88P-q4Avn-57">
          <mxGeometry x="174" width="110" height="40" as="geometry">
            <mxRectangle width="110" height="40" as="alternateBounds" />
          </mxGeometry>
        </mxCell>
        <mxCell id="U2eWrKddskr88P-q4Avn-61" value="Customer does not scan QR/takes too long to scan" style="shape=partialRectangle;html=1;whiteSpace=wrap;connectable=0;strokeColor=inherit;overflow=hidden;fillColor=none;top=0;left=0;bottom=0;right=0;pointerEvents=1;" vertex="1" parent="U2eWrKddskr88P-q4Avn-57">
          <mxGeometry x="284" width="416" height="40" as="geometry">
            <mxRectangle width="416" height="40" as="alternateBounds" />
          </mxGeometry>
        </mxCell>
        <mxCell id="U2eWrKddskr88P-q4Avn-67" style="shape=tableRow;horizontal=0;startSize=0;swimlaneHead=0;swimlaneBody=0;strokeColor=inherit;top=0;left=0;bottom=0;right=0;collapsible=0;dropTarget=0;fillColor=none;points=[[0,0.5],[1,0.5]];portConstraint=eastwest;" vertex="1" parent="U2eWrKddskr88P-q4Avn-1">
          <mxGeometry y="530" width="700" height="60" as="geometry" />
        </mxCell>
        <mxCell id="U2eWrKddskr88P-q4Avn-68" style="shape=partialRectangle;html=1;whiteSpace=wrap;connectable=0;strokeColor=inherit;overflow=hidden;fillColor=none;top=0;left=0;bottom=0;right=0;pointerEvents=1;" vertex="1" visible="0" parent="U2eWrKddskr88P-q4Avn-67">
          <mxGeometry width="120" height="60" as="geometry">
            <mxRectangle width="120" height="60" as="alternateBounds" />
          </mxGeometry>
        </mxCell>
        <mxCell id="U2eWrKddskr88P-q4Avn-69" value="4a1" style="shape=partialRectangle;html=1;whiteSpace=wrap;connectable=0;strokeColor=inherit;overflow=hidden;fillColor=none;top=0;left=0;bottom=0;right=0;pointerEvents=1;" vertex="1" parent="U2eWrKddskr88P-q4Avn-67">
          <mxGeometry x="120" width="54" height="60" as="geometry">
            <mxRectangle width="54" height="60" as="alternateBounds" />
          </mxGeometry>
        </mxCell>
        <mxCell id="U2eWrKddskr88P-q4Avn-70" value="System" style="shape=partialRectangle;html=1;whiteSpace=wrap;connectable=0;strokeColor=inherit;overflow=hidden;fillColor=none;top=0;left=0;bottom=0;right=0;pointerEvents=1;" vertex="1" parent="U2eWrKddskr88P-q4Avn-67">
          <mxGeometry x="174" width="110" height="60" as="geometry">
            <mxRectangle width="110" height="60" as="alternateBounds" />
          </mxGeometry>
        </mxCell>
        <mxCell id="U2eWrKddskr88P-q4Avn-71" value="Show Session timed out message&lt;br&gt;&lt;i&gt;Fallback to step 3&lt;/i&gt;" style="shape=partialRectangle;html=1;whiteSpace=wrap;connectable=0;strokeColor=inherit;overflow=hidden;fillColor=none;top=0;left=0;bottom=0;right=0;pointerEvents=1;" vertex="1" parent="U2eWrKddskr88P-q4Avn-67">
          <mxGeometry x="284" width="416" height="60" as="geometry">
            <mxRectangle width="416" height="60" as="alternateBounds" />
          </mxGeometry>
        </mxCell>
      </root>
    </mxGraphModel>
  </diagram>
</mxfile>
